<svg xmlns="http://www.w3.org/2000/svg" width="219" height="20" viewBox="0 0 219 20" fill="none"><path d="M50.9427 15.6803C49.855 15.6803 48.899 15.4396 48.0747 14.9582C47.2578 14.4846 46.5901 13.7916 46.1472 12.9577C45.6864 12.1058 45.456 11.1291 45.4561 10.0275C45.4561 8.91223 45.6812 7.92505 46.1315 7.06589C46.5818 6.20703 47.2071 5.53511 48.0073 5.05013C48.8073 4.56532 49.7269 4.32287 50.7661 4.32275C51.7983 4.32275 52.6867 4.56691 53.4313 5.05523C54.1761 5.54361 54.7493 6.22766 55.1511 7.1074C55.5529 7.98736 55.7538 9.01957 55.754 10.204V10.8484H47.7838C47.9292 11.7351 48.2877 12.4331 48.8592 12.9422C49.4308 13.4514 50.153 13.7059 51.0259 13.7058C51.7255 13.7058 52.3282 13.602 52.8339 13.3942C53.3395 13.1863 53.814 12.8711 54.2575 12.4486L55.5046 13.9761C54.2644 15.1123 52.7437 15.6803 50.9427 15.6803ZM52.6573 7.05024C52.1654 6.54809 51.5211 6.29701 50.7246 6.29701C49.9486 6.29701 49.2991 6.55331 48.7762 7.06589C48.2529 7.5786 47.9221 8.26787 47.7838 9.13371H53.499C53.4296 8.2471 53.1491 7.55261 52.6574 7.05024H52.6573Z" fill="white"/><path d="M58.6012 6.50501H56.4398V4.58246H58.6012V1.40283H60.8667V4.58246H64.1503V6.50501H60.8667V11.3786C60.8667 12.189 61.0052 12.7673 61.2822 13.1137C61.5593 13.4603 62.0339 13.6336 62.7059 13.6333C62.9592 13.6356 63.2124 13.6235 63.4644 13.5971C63.6722 13.5728 63.9009 13.5398 64.1502 13.4983V15.3999C63.8657 15.4822 63.5757 15.5447 63.2825 15.587C62.9471 15.6363 62.6084 15.6606 62.2694 15.6596C59.8239 15.6596 58.6012 14.3227 58.6012 11.6487L58.6012 6.50501Z" fill="white"/><path d="M75.9549 15.4205H73.7311V13.9035C73.3476 14.4616 72.8294 14.9137 72.2245 15.2179C71.6148 15.526 70.9221 15.6801 70.1463 15.6803C69.1903 15.6803 68.3434 15.4361 67.6056 14.9476C66.8676 14.4594 66.2875 13.7875 65.865 12.9319C65.4425 12.0762 65.2312 11.0977 65.2312 9.99615C65.2312 8.88807 65.4459 7.90786 65.8754 7.05552C66.3049 6.20345 66.899 5.53499 67.6576 5.05013C68.4159 4.56532 69.287 4.32287 70.2708 4.32275C71.0121 4.32275 71.6772 4.46644 72.2661 4.7538C72.847 5.03492 73.35 5.45418 73.7311 5.97485V4.58234H75.9549L75.9549 15.4205ZM73.6896 8.37521C73.447 7.75875 73.0643 7.27208 72.5414 6.91519C72.0183 6.55864 71.4138 6.38025 70.728 6.38003C69.7581 6.38003 68.9857 6.70562 68.4108 7.35678C67.8359 8.00812 67.5484 8.88792 67.5484 9.99616C67.5484 11.1117 67.8255 11.995 68.3797 12.6461C68.9337 13.2973 69.6853 13.6228 70.6345 13.6228C71.3343 13.6228 71.9578 13.4427 72.505 13.0826C73.0427 12.734 73.4571 12.225 73.6896 11.6278V8.37521Z" fill="white"/><path d="M82.4388 6.50488H80.2775V4.58233H82.4388V4.04208C82.4388 2.73276 82.7887 1.73175 83.4884 1.03903C84.1879 0.346342 85.1196 4.45158e-08 86.2836 4.45158e-08C86.6019 -3.79489e-05 86.9198 0.0242441 87.2345 0.0726347C87.5241 0.115581 87.8105 0.17804 88.0917 0.259584V2.14045C87.7244 2.07122 87.4282 2.02619 87.2032 2.00538C86.978 1.98462 86.7511 1.97425 86.5226 1.97425C85.3102 1.97425 84.7041 2.64969 84.7041 4.00056V4.58232H87.9462V6.50487H84.7041V15.4205H82.4389L82.4388 6.50488Z" fill="white"/><path d="M89.136 12.9683C88.6683 12.116 88.4345 11.1288 88.4344 10.0067C88.4344 8.87753 88.6683 7.88689 89.136 7.03477C89.587 6.19955 90.264 5.50812 91.0895 5.03958C91.9242 4.56158 92.8923 4.32264 93.9939 4.32275C95.0953 4.32275 96.0635 4.5617 96.8983 5.03958C97.7237 5.50822 98.4007 6.19962 98.8518 7.03477C99.3194 7.88683 99.5533 8.87748 99.5533 10.0067C99.5533 11.1289 99.3195 12.1161 98.8518 12.9683C98.4006 13.8033 97.7237 14.4947 96.8983 14.9633C96.0634 15.4413 95.0953 15.6803 93.9939 15.6803C92.8992 15.6803 91.9329 15.4413 91.0948 14.9633C90.267 14.4959 89.5881 13.8044 89.136 12.9683ZM97.236 10.0067C97.236 8.91904 96.9398 8.04616 96.3475 7.38808C95.7552 6.73011 94.9706 6.401 93.9939 6.40077C93.0171 6.40077 92.2326 6.72988 91.6403 7.38808C91.048 8.04639 90.7518 8.91926 90.7518 10.0067C90.7518 11.0874 91.048 11.9567 91.6403 12.6148C92.2326 13.2731 93.0171 13.6022 93.9939 13.6021C94.9706 13.6021 95.7552 13.273 96.3475 12.6148C96.9398 11.9568 97.236 11.0874 97.236 10.0067Z" fill="white"/><path d="M101.486 4.58233H103.72V6.24495C104.42 5.03278 105.376 4.42663 106.588 4.42651C106.983 4.42651 107.305 4.46116 107.555 4.53045V6.61919C107.214 6.57109 106.87 6.54676 106.526 6.54639C105.168 6.54639 104.243 7.15599 103.751 8.3752V15.4205H101.486L101.486 4.58233Z" fill="white"/><path d="M112.023 0.872559H117.769C119.272 0.872559 120.564 1.18607 121.645 1.81308C122.706 2.41972 123.572 3.31521 124.144 4.3953C124.729 5.48994 125.022 6.74039 125.022 8.14666C125.022 9.55293 124.729 10.8033 124.144 11.8979C123.572 12.9779 122.706 13.8734 121.645 14.4801C120.564 15.1071 119.272 15.4205 117.769 15.4204H112.023V0.872559ZM117.758 13.207C118.756 13.207 119.612 12.9957 120.325 12.5732C121.034 12.1557 121.605 11.5398 121.967 10.8015C122.348 10.043 122.538 9.15805 122.538 8.14667C122.538 7.13521 122.348 6.2502 121.967 5.49164C121.605 4.75329 121.034 4.13731 120.325 3.71981C119.611 3.29744 118.756 3.08616 117.758 3.08599H114.433V13.207H117.758Z" fill="white"/><path d="M132.067 15.6803C130.979 15.6803 130.023 15.4396 129.199 14.9582C128.382 14.4846 127.714 13.7916 127.271 12.9577C126.811 12.1058 126.58 11.1291 126.58 10.0275C126.58 8.91223 126.805 7.92505 127.256 7.06589C127.706 6.20703 128.331 5.53511 129.131 5.05013C129.931 4.56532 130.851 4.32287 131.89 4.32275C132.922 4.32275 133.811 4.56691 134.555 5.05523C135.3 5.54361 135.873 6.22766 136.275 7.1074C136.677 7.98736 136.878 9.01957 136.878 10.204V10.8484H128.908C129.053 11.7351 129.412 12.4331 129.983 12.9422C130.555 13.4514 131.277 13.7059 132.15 13.7058C132.85 13.7058 133.452 13.602 133.958 13.3942C134.464 13.1863 134.938 12.8711 135.382 12.4486L136.629 13.9761C135.388 15.1123 133.868 15.6803 132.067 15.6803ZM133.781 7.05024C133.29 6.54809 132.645 6.29701 131.849 6.29701C131.073 6.29701 130.423 6.55331 129.9 7.06589C129.377 7.5786 129.046 8.26787 128.908 9.13371H134.623C134.554 8.2471 134.273 7.55261 133.781 7.05024H133.781Z" fill="white"/><path d="M139.357 10.0482C138.653 8.21933 138.004 6.39737 137.408 4.58228H139.944C140.817 7.57513 141.838 10.561 143.009 13.5398C143.591 12.0641 144.138 10.5729 144.651 9.0663C145.164 7.5595 145.635 6.06483 146.064 4.58229H148.506C147.917 6.39733 147.27 8.21929 146.563 10.0482C145.856 11.8771 145.108 13.6679 144.318 15.4205H141.596C140.806 13.668 140.06 11.8773 139.357 10.0482Z" fill="white"/><path d="M154.533 15.6803C153.445 15.6803 152.489 15.4396 151.665 14.9582C150.848 14.4847 150.18 13.7916 149.738 12.9577C149.277 12.1058 149.046 11.1291 149.047 10.0275C149.047 8.91223 149.272 7.92505 149.722 7.06589C150.172 6.20703 150.797 5.53511 151.598 5.05013C152.398 4.56532 153.317 4.32287 154.356 4.32275C155.389 4.32275 156.277 4.56691 157.022 5.05523C157.766 5.54361 158.34 6.22766 158.742 7.1074C159.143 7.98736 159.344 9.01957 159.344 10.204V10.8484H151.374C151.52 11.7351 151.878 12.4331 152.45 12.9422C153.021 13.4514 153.743 13.7059 154.616 13.7058C155.316 13.7058 155.918 13.602 156.424 13.3942C156.93 13.1863 157.405 12.8711 157.848 12.4486L159.095 13.9761C157.855 15.1123 156.334 15.6803 154.533 15.6803ZM156.248 7.05024C155.756 6.54809 155.111 6.29701 154.315 6.29701C153.539 6.29701 152.889 6.55331 152.366 7.06589C151.843 7.5786 151.513 8.26787 151.374 9.13371H157.089C157.02 8.2471 156.739 7.55261 156.248 7.05024Z" fill="white"/><path d="M161.256 0.249512H163.522V15.4207H161.256V0.249512Z" fill="white"/><path d="M166.197 12.9683C165.729 12.116 165.495 11.1288 165.495 10.0067C165.495 8.87753 165.729 7.88689 166.197 7.03477C166.648 6.19951 167.325 5.50808 168.151 5.03958C168.985 4.56158 169.953 4.32264 171.055 4.32275C172.156 4.32275 173.124 4.5617 173.959 5.03958C174.785 5.50821 175.462 6.19961 175.913 7.03477C176.38 7.88683 176.614 8.87748 176.614 10.0067C176.614 11.1289 176.38 12.1161 175.913 12.9683C175.462 13.8033 174.785 14.4947 173.959 14.9633C173.124 15.4413 172.156 15.6803 171.055 15.6803C169.96 15.6803 168.994 15.4413 168.156 14.9633C167.328 14.496 166.649 13.8044 166.197 12.9683ZM174.297 10.0067C174.297 8.91904 174.001 8.04616 173.409 7.38808C172.816 6.73011 172.032 6.401 171.055 6.40077C170.078 6.40077 169.294 6.72988 168.701 7.38808C168.109 8.04639 167.813 8.91926 167.813 10.0067C167.813 11.0874 168.109 11.9567 168.701 12.6148C169.294 13.2731 170.078 13.6022 171.055 13.6021C172.032 13.6021 172.816 13.273 173.409 12.6148C174.001 11.9568 174.297 11.0874 174.297 10.0067H174.297Z" fill="white"/><path d="M178.589 4.58234H180.823V6.08914C181.204 5.53274 181.721 5.08226 182.324 4.77983C182.93 4.47517 183.621 4.32281 184.397 4.32275C185.353 4.32275 186.202 4.56691 186.943 5.05523C187.684 5.54361 188.265 6.21383 188.684 7.06589C189.103 7.91813 189.312 8.8984 189.312 10.0067C189.312 11.1081 189.098 12.0867 188.668 12.9422C188.239 13.7979 187.645 14.4681 186.886 14.9529C186.128 15.4377 185.257 15.6802 184.273 15.6803C183.545 15.6803 182.891 15.5418 182.309 15.2647C181.735 14.9941 181.235 14.5875 180.854 14.0801V19.7848H178.589L178.589 4.58234ZM182.002 13.0877C182.525 13.4446 183.13 13.6229 183.815 13.6228C184.785 13.6228 185.558 13.2972 186.133 12.6461C186.708 11.9949 186.995 11.1151 186.995 10.0067C186.995 8.89149 186.718 8.00818 186.164 7.35678C185.609 6.70578 184.858 6.3802 183.909 6.38003C183.209 6.38003 182.586 6.56017 182.039 6.92046C181.501 7.269 181.086 7.77796 180.854 8.37521V11.6278C181.096 12.2443 181.479 12.7309 182.002 13.0877Z" fill="white"/><path d="M196.254 15.6803C195.166 15.6803 194.21 15.4396 193.386 14.9582C192.569 14.4847 191.901 13.7916 191.458 12.9577C190.997 12.1058 190.767 11.1291 190.767 10.0275C190.767 8.91223 190.992 7.92505 191.442 7.06589C191.893 6.20703 192.518 5.53511 193.318 5.05013C194.118 4.56532 195.038 4.32287 196.077 4.32275C197.109 4.32275 197.997 4.56691 198.742 5.05523C199.487 5.54361 200.06 6.22766 200.462 7.1074C200.864 7.98736 201.065 9.01957 201.065 10.204V10.8484H193.095C193.24 11.7351 193.599 12.4331 194.17 12.9422C194.742 13.4514 195.464 13.7059 196.337 13.7058C197.036 13.7058 197.639 13.602 198.145 13.3942C198.651 13.1863 199.125 12.8711 199.568 12.4486L200.815 13.9761C199.575 15.1123 198.055 15.6803 196.254 15.6803ZM197.968 7.05024C197.476 6.54809 196.832 6.29701 196.035 6.29701C195.259 6.29701 194.61 6.55331 194.087 7.06589C193.564 7.5786 193.233 8.26787 193.095 9.13371H198.81C198.74 8.2471 198.46 7.55261 197.968 7.05024Z" fill="white"/><path d="M202.977 4.58233H205.211V6.24495C205.91 5.03278 206.866 4.42663 208.079 4.42651C208.474 4.42651 208.796 4.46116 209.045 4.53045V6.61919C208.704 6.57109 208.361 6.54676 208.016 6.54639C206.659 6.54639 205.734 7.15599 205.242 8.3752V15.4205H202.977V4.58233Z" fill="white"/><path d="M217.794 14.7607C216.991 15.3737 215.913 15.6803 214.563 15.6803C213.42 15.6803 212.424 15.4794 211.575 15.0776C210.727 14.676 210.094 14.1356 209.679 13.4565L211.206 12.1266C211.525 12.6114 211.965 12.9958 212.526 13.2799C213.087 13.564 213.756 13.706 214.531 13.7058C215.979 13.7058 216.703 13.2833 216.703 12.4382C216.703 12.0781 216.584 11.7889 216.345 11.5707C216.106 11.3522 215.712 11.1981 215.165 11.1081L213.077 10.7445C212.093 10.5715 211.341 10.2216 210.822 9.69489C210.302 9.16858 210.042 8.48969 210.042 7.65821C210.042 6.65389 210.442 5.84685 211.243 5.23708C212.043 4.62758 213.125 4.32281 214.49 4.32275C215.481 4.32275 216.369 4.52535 217.155 4.93054C217.941 5.3359 218.525 5.86068 218.906 6.50488L217.337 7.6895C217.074 7.25999 216.682 6.92051 216.163 6.67108C215.643 6.4217 215.041 6.29701 214.355 6.29701C213.711 6.29701 213.214 6.40781 212.864 6.6294C212.514 6.85122 212.339 7.15957 212.339 7.55444C212.339 7.89381 212.446 8.15702 212.661 8.34408C212.876 8.53119 213.236 8.66977 213.742 8.75982L216.09 9.17538C217.032 9.34158 217.753 9.69659 218.252 10.2404C218.75 10.7844 219 11.4685 219 12.2928C219 13.3251 218.598 14.1478 217.794 14.7607Z" fill="white"/><path d="M27.8846 0.873047H30.7631L35.6574 9.72635L40.5516 0.873047H43.3678V15.4209H41.0195V4.27097L36.7276 11.9917H34.5247L30.2332 4.27097V15.4209H27.8847L27.8846 0.873047Z" fill="white"/><path d="M6.6184 0.378174C6.61099 0.378174 6.60362 0.378201 6.5962 0.378239L6.56592 2.88005C6.57285 2.87998 6.57977 2.87992 6.58671 2.87992C8.23343 2.87992 9.51071 4.17829 12.2869 8.85455L12.4561 9.13925L12.4672 9.15788L14.0213 6.82611L14.0105 6.8081C13.6448 6.21327 13.2934 5.66598 12.9565 5.16623C12.5657 4.5872 12.1919 4.06993 11.8292 3.6081C9.99272 1.26971 8.45642 0.378174 6.6184 0.378174Z" fill="url(#paint0_linear_1412_698)"/><path d="M6.59644 0.378233C4.74948 0.387735 3.11665 1.58206 1.9376 3.4096C1.93415 3.41496 1.9307 3.42031 1.92725 3.42567L4.09152 4.60365C4.09504 4.59833 4.09857 4.593 4.1021 4.5877C4.79059 3.55107 5.64739 2.8899 6.56615 2.88006C6.57308 2.87998 6.58 2.87992 6.58694 2.87992L6.61861 0.378175C6.61119 0.378167 6.60384 0.378195 6.59644 0.378233Z" fill="url(#paint1_linear_1412_698)"/><path d="M1.93764 3.40942C1.93419 3.41478 1.93074 3.42014 1.92729 3.4255C1.15253 4.63155 0.574962 6.11152 0.26283 7.70813C0.261477 7.71504 0.260131 7.72196 0.258789 7.72888L2.69026 8.30259C2.69153 8.29566 2.69282 8.28871 2.69409 8.28179C2.95399 6.87864 3.4488 5.57725 4.09155 4.60348C4.09507 4.59816 4.0986 4.59282 4.10213 4.58752L1.93764 3.40942Z" fill="url(#paint2_linear_1412_698)"/><path d="M2.69404 8.2819L0.262774 7.70825C0.261422 7.71516 0.260075 7.72208 0.258733 7.729C0.0885306 8.60707 0.00193983 9.49929 0.00012207 10.3937C0.00012207 10.4009 0.00012207 10.4082 0.00012207 10.4154L2.4937 10.6385C2.4935 10.6312 2.49329 10.624 2.49312 10.6168C2.4919 10.5649 2.49128 10.5123 2.49126 10.459C2.4925 9.73573 2.5591 9.01402 2.69024 8.30271C2.69148 8.29578 2.69276 8.28883 2.69404 8.2819Z" fill="url(#paint3_linear_1412_698)"/><path d="M2.5695 11.4165C2.52477 11.1595 2.49942 10.8994 2.49366 10.6386C2.49346 10.6313 2.49326 10.6241 2.49308 10.6169L0.000107614 10.3938C0.000107614 10.401 0.000107614 10.4083 0.000107614 10.4155V10.4169C-0.00252685 10.9398 0.0432138 11.4618 0.136745 11.9762C0.13805 11.9832 0.139332 11.99 0.140656 11.997L2.5733 11.4374C2.57199 11.4305 2.57075 11.4235 2.5695 11.4165Z" fill="url(#paint4_linear_1412_698)"/><path d="M3.13762 12.7071C2.86627 12.4109 2.67422 11.9837 2.57327 11.4373C2.572 11.4304 2.57075 11.4235 2.56951 11.4165L0.136719 11.9762C0.138024 11.9831 0.139306 11.99 0.14063 11.9969C0.324509 12.9623 0.685143 13.7669 1.20157 14.3756C1.20616 14.381 1.21077 14.3865 1.21539 14.3918L3.15211 12.7227C3.14727 12.7176 3.14242 12.7123 3.13762 12.7071Z" fill="url(#paint5_linear_1412_698)"/><path d="M10.345 5.78662C8.87902 8.03524 7.99094 9.4456 7.99094 9.4456C6.0381 12.5068 5.3625 13.1929 4.27526 13.1929C3.82159 13.1929 3.44256 13.0314 3.1522 12.7226C3.14736 12.7174 3.1425 12.7122 3.13771 12.707L1.20166 14.3755C1.20625 14.3809 1.21086 14.3863 1.21549 14.3917C1.92856 15.2229 2.93509 15.6841 4.18027 15.6841C6.06414 15.6841 7.41904 14.796 9.82767 10.5856C9.82767 10.5856 10.8317 8.81254 11.5225 7.59116C11.0946 6.90034 10.7052 6.30228 10.345 5.78662Z" fill="white"/><path d="M12.9579 2.23755C12.953 2.24279 12.9479 2.24816 12.943 2.25342C12.5458 2.68287 12.1739 3.13503 11.8291 3.60762C12.1918 4.06946 12.5662 4.58774 12.9571 5.16677C13.4177 4.45585 13.8476 3.88006 14.269 3.43875C14.274 3.43351 14.2789 3.42841 14.2839 3.42323L12.9579 2.23755Z" fill="url(#paint6_linear_1412_698)"/><path d="M20.0753 2.0171C19.0529 0.984226 17.8339 0.378174 16.5307 0.378174C15.1565 0.378174 14.0006 1.13123 12.958 2.23753C12.9531 2.24277 12.9481 2.24813 12.9431 2.25339L14.2692 3.43873C14.2741 3.43349 14.279 3.42839 14.284 3.42321C14.9709 2.7088 15.6355 2.35213 16.3723 2.35213H16.3723C17.1654 2.35213 17.9078 2.72545 18.5508 3.37993C18.5559 3.38506 18.5609 3.39014 18.5659 3.39531L20.0905 2.03247C20.0854 2.02733 20.0804 2.02223 20.0753 2.0171Z" fill="white"/><path d="M23.0308 10.0645C22.9735 6.74811 21.813 3.78331 20.0903 2.03247C20.0853 2.02731 20.0802 2.02222 20.0751 2.01709L18.5507 3.37992C18.5557 3.38505 18.5607 3.39014 18.5657 3.3953C19.8616 4.72645 20.7505 7.20243 20.8313 10.0638C20.8315 10.071 20.8317 10.0782 20.8319 10.0854L23.0311 10.0861C23.031 10.0789 23.0309 10.0717 23.0308 10.0645Z" fill="url(#paint7_linear_1412_698)"/><path d="M23.0312 10.086C23.0311 10.0788 23.031 10.0716 23.0309 10.0644L20.8315 10.0637C20.8317 10.0709 20.8319 10.0781 20.8321 10.0853C20.8357 10.2196 20.8375 10.3547 20.8374 10.4907C20.8374 11.2708 20.7209 11.9014 20.4839 12.3567C20.4804 12.3635 20.4768 12.3703 20.4733 12.3769L22.1131 14.0824C22.1171 14.0762 22.1211 14.0701 22.1252 14.0639C22.7205 13.1453 23.033 11.8692 23.033 10.3218C23.0331 10.243 23.0325 10.1644 23.0312 10.086Z" fill="url(#paint8_linear_1412_698)"/><path d="M20.4838 12.3569C20.4803 12.3637 20.4767 12.3705 20.4731 12.3771C20.268 12.7609 19.9753 13.0169 19.5927 13.1288L20.3402 15.4848C20.4392 15.4511 20.5356 15.4134 20.6293 15.3715C20.6573 15.3591 20.6851 15.3462 20.7127 15.333C20.7285 15.3254 20.7443 15.3177 20.7601 15.3099C21.2586 15.0583 21.6878 14.6882 22.01 14.232C22.0306 14.2034 22.051 14.1746 22.071 14.1452C22.0852 14.1245 22.0991 14.1037 22.1129 14.0826C22.117 14.0764 22.121 14.0703 22.125 14.064L20.4838 12.3569Z" fill="url(#paint9_linear_1412_698)"/><path d="M19.1169 13.1929C18.8805 13.1985 18.6457 13.1528 18.4286 13.0588L17.6632 15.4708C18.0934 15.6178 18.5523 15.6841 19.0641 15.6841C19.5049 15.6882 19.9432 15.6184 20.3609 15.4775L19.6135 13.1223C19.4525 13.1706 19.2851 13.1944 19.1169 13.1929Z" fill="url(#paint10_linear_1412_698)"/><path d="M17.5851 12.3682C17.5804 12.3628 17.5757 12.3573 17.571 12.3518L15.8097 14.1835C15.8146 14.1888 15.8195 14.1941 15.8245 14.1993C16.4365 14.8515 17.0208 15.2561 17.6836 15.4781L18.4484 13.0679C18.1691 12.9479 17.899 12.7305 17.5851 12.3682Z" fill="url(#paint11_linear_1412_698)"/><path d="M17.571 12.3517C17.0427 11.7373 16.3892 10.7144 15.3612 9.06036L14.0216 6.82611L14.0108 6.80811L12.4564 9.13925L12.4675 9.15788L13.4167 10.7547C14.3368 12.2944 15.0864 13.4083 15.8098 14.1834C15.8147 14.1887 15.8196 14.1939 15.8246 14.1992L17.5852 12.3681C17.5805 12.3627 17.5757 12.3572 17.571 12.3517Z" fill="url(#paint12_linear_1412_698)"/><defs><linearGradient id="paint0_linear_1412_698" x1="12.9884" y1="8.20961" x2="7.82875" y2="1.44874" gradientUnits="userSpaceOnUse"><stop offset="0.8591" stop-color="white"/></linearGradient><linearGradient id="paint1_linear_1412_698" x1="2.94385" y1="3.82997" x2="6.48108" y2="1.14453" gradientUnits="userSpaceOnUse"><stop offset="0.1323" stop-color="white"/></linearGradient><linearGradient id="paint2_linear_1412_698" x1="1.44461" y1="7.77058" x2="2.86352" y2="4.19875" gradientUnits="userSpaceOnUse"><stop offset="0.0147" stop-color="white"/></linearGradient><linearGradient id="paint3_linear_1412_698" x1="1.25186" y1="10.351" x2="1.41604" y2="8.16961" gradientUnits="userSpaceOnUse"><stop offset="0.0731" stop-color="white"/></linearGradient><linearGradient id="paint4_linear_1412_698" x1="1.34213" y1="11.536" x2="1.22469" y2="10.6621" gradientUnits="userSpaceOnUse"><stop offset="0.0731" stop-color="white"/><stop offset="1" stop-color="white"/></linearGradient><linearGradient id="paint5_linear_1412_698" x1="1.27319" y1="11.7656" x2="2.00508" y2="13.3179" gradientUnits="userSpaceOnUse"><stop offset="0.0731" stop-color="white"/><stop offset="1" stop-color="white"/></linearGradient><linearGradient id="paint6_linear_1412_698" x1="12.5221" y1="4.25457" x2="13.4896" y2="2.91637" gradientUnits="userSpaceOnUse"><stop offset="0.2799" stop-color="white"/><stop offset="0.9141" stop-color="white"/></linearGradient><linearGradient id="paint7_linear_1412_698" x1="19.8786" y1="2.52017" x2="21.9027" y2="9.9662" gradientUnits="userSpaceOnUse"><stop stop-color="white"/><stop offset="0.9995" stop-color="white"/></linearGradient><linearGradient id="paint8_linear_1412_698" x1="22.3916" y1="10.251" x2="21.1105" y2="12.8397" gradientUnits="userSpaceOnUse"><stop offset="0.0619" stop-color="white"/><stop offset="1" stop-color="white"/></linearGradient><linearGradient id="paint9_linear_1412_698" x1="20.0922" y1="14.2124" x2="21.2897" y2="13.3968" gradientUnits="userSpaceOnUse"><stop stop-color="white"/><stop offset="1" stop-color="white"/></linearGradient><linearGradient id="paint10_linear_1412_698" x1="18.2144" y1="14.3714" x2="19.8784" y2="14.3714" gradientUnits="userSpaceOnUse"><stop stop-color="white"/><stop offset="0.9994" stop-color="white"/></linearGradient><linearGradient id="paint11_linear_1412_698" x1="16.7676" y1="13.4553" x2="17.9639" y2="14.1591" gradientUnits="userSpaceOnUse"><stop offset="0.0019" stop-color="white"/><stop offset="1" stop-color="white"/></linearGradient><linearGradient id="paint12_linear_1412_698" x1="13.1184" y1="8.26551" x2="16.9506" y2="13.0837" gradientUnits="userSpaceOnUse"><stop offset="0.2765" stop-color="white"/><stop offset="1" stop-color="white"/></linearGradient></defs></svg>