<svg id="visual" viewBox="0 0 960 540" width="960" height="540" xmlns="http://www.w3.org/2000/svg" xmlns:xlink="http://www.w3.org/1999/xlink" version="1.1"><rect x="0" y="0" width="960" height="540" fill="#001220"></rect><path d="M0 346L22.8 350.2C45.7 354.3 91.3 362.7 137 361.3C182.7 360 228.3 349 274 348.5C319.7 348 365.3 358 411.2 350.8C457 343.7 503 319.3 548.8 309.3C594.7 299.3 640.3 303.7 686 300.3C731.7 297 777.3 286 823 289.2C868.7 292.3 914.3 309.7 937.2 318.3L960 327L960 541L937.2 541C914.3 541 868.7 541 823 541C777.3 541 731.7 541 686 541C640.3 541 594.7 541 548.8 541C503 541 457 541 411.2 541C365.3 541 319.7 541 274 541C228.3 541 182.7 541 137 541C91.3 541 45.7 541 22.8 541L0 541Z" fill="#91b5d7"></path><path d="M0 324L22.8 334C45.7 344 91.3 364 137 369.7C182.7 375.3 228.3 366.7 274 358.3C319.7 350 365.3 342 411.2 342.5C457 343 503 352 548.8 353.5C594.7 355 640.3 349 686 350.8C731.7 352.7 777.3 362.3 823 361.2C868.7 360 914.3 348 937.2 342L960 336L960 541L937.2 541C914.3 541 868.7 541 823 541C777.3 541 731.7 541 686 541C640.3 541 594.7 541 548.8 541C503 541 457 541 411.2 541C365.3 541 319.7 541 274 541C228.3 541 182.7 541 137 541C91.3 541 45.7 541 22.8 541L0 541Z" fill="#6b9ed7"></path><path d="M0 400L22.8 399.3C45.7 398.7 91.3 397.3 137 396.2C182.7 395 228.3 394 274 398.7C319.7 403.3 365.3 413.7 411.2 415.2C457 416.7 503 409.3 548.8 404.7C594.7 400 640.3 398 686 392.8C731.7 387.7 777.3 379.3 823 378C868.7 376.7 914.3 382.3 937.2 385.2L960 388L960 541L937.2 541C914.3 541 868.7 541 823 541C777.3 541 731.7 541 686 541C640.3 541 594.7 541 548.8 541C503 541 457 541 411.2 541C365.3 541 319.7 541 274 541C228.3 541 182.7 541 137 541C91.3 541 45.7 541 22.8 541L0 541Z" fill="#4886d5"></path><path d="M0 435L22.8 440.2C45.7 445.3 91.3 455.7 137 460.2C182.7 464.7 228.3 463.3 274 454.3C319.7 445.3 365.3 428.7 411.2 421.5C457 414.3 503 416.7 548.8 422C594.7 427.3 640.3 435.7 686 441.5C731.7 447.3 777.3 450.7 823 453.8C868.7 457 914.3 460 937.2 461.5L960 463L960 541L937.2 541C914.3 541 868.7 541 823 541C777.3 541 731.7 541 686 541C640.3 541 594.7 541 548.8 541C503 541 457 541 411.2 541C365.3 541 319.7 541 274 541C228.3 541 182.7 541 137 541C91.3 541 45.7 541 22.8 541L0 541Z" fill="#2c6cd0"></path><path d="M0 511L22.8 510.3C45.7 509.7 91.3 508.3 137 501.5C182.7 494.7 228.3 482.3 274 474.7C319.7 467 365.3 464 411.2 462.2C457 460.3 503 459.7 548.8 459.5C594.7 459.3 640.3 459.7 686 459.7C731.7 459.7 777.3 459.3 823 459.3C868.7 459.3 914.3 459.7 937.2 459.8L960 460L960 541L937.2 541C914.3 541 868.7 541 823 541C777.3 541 731.7 541 686 541C640.3 541 594.7 541 548.8 541C503 541 457 541 411.2 541C365.3 541 319.7 541 274 541C228.3 541 182.7 541 137 541C91.3 541 45.7 541 22.8 541L0 541Z" fill="#2450c7"></path></svg>