<svg id="visual" viewBox="0 0 960 540" width="960" height="540" xmlns="http://www.w3.org/2000/svg" xmlns:xlink="http://www.w3.org/1999/xlink" version="1.1"><rect x="0" y="0" width="960" height="540" fill="#001220"></rect><path d="M0 392L22.8 389.5C45.7 387 91.3 382 137 384.3C182.7 386.7 228.3 396.3 274 403.5C319.7 410.7 365.3 415.3 411.2 410.8C457 406.3 503 392.7 548.8 391.8C594.7 391 640.3 403 686 402.3C731.7 401.7 777.3 388.3 823 379.3C868.7 370.3 914.3 365.7 937.2 363.3L960 361L960 541L937.2 541C914.3 541 868.7 541 823 541C777.3 541 731.7 541 686 541C640.3 541 594.7 541 548.8 541C503 541 457 541 411.2 541C365.3 541 319.7 541 274 541C228.3 541 182.7 541 137 541C91.3 541 45.7 541 22.8 541L0 541Z" fill="#69a2fa"></path><path d="M0 411L22.8 410.7C45.7 410.3 91.3 409.7 137 411.8C182.7 414 228.3 419 274 421.8C319.7 424.7 365.3 425.3 411.2 430.2C457 435 503 444 548.8 438.2C594.7 432.3 640.3 411.7 686 405.2C731.7 398.7 777.3 406.3 823 413.7C868.7 421 914.3 428 937.2 431.5L960 435L960 541L937.2 541C914.3 541 868.7 541 823 541C777.3 541 731.7 541 686 541C640.3 541 594.7 541 548.8 541C503 541 457 541 411.2 541C365.3 541 319.7 541 274 541C228.3 541 182.7 541 137 541C91.3 541 45.7 541 22.8 541L0 541Z" fill="#558dee"></path><path d="M0 468L22.8 466.8C45.7 465.7 91.3 463.3 137 460.8C182.7 458.3 228.3 455.7 274 458C319.7 460.3 365.3 467.7 411.2 468.7C457 469.7 503 464.3 548.8 458.3C594.7 452.3 640.3 445.7 686 444.3C731.7 443 777.3 447 823 446.3C868.7 445.7 914.3 440.3 937.2 437.7L960 435L960 541L937.2 541C914.3 541 868.7 541 823 541C777.3 541 731.7 541 686 541C640.3 541 594.7 541 548.8 541C503 541 457 541 411.2 541C365.3 541 319.7 541 274 541C228.3 541 182.7 541 137 541C91.3 541 45.7 541 22.8 541L0 541Z" fill="#4379e2"></path><path d="M0 459L22.8 461C45.7 463 91.3 467 137 471.5C182.7 476 228.3 481 274 480.7C319.7 480.3 365.3 474.7 411.2 473.8C457 473 503 477 548.8 479.3C594.7 481.7 640.3 482.3 686 478.8C731.7 475.3 777.3 467.7 823 465.7C868.7 463.7 914.3 467.3 937.2 469.2L960 471L960 541L937.2 541C914.3 541 868.7 541 823 541C777.3 541 731.7 541 686 541C640.3 541 594.7 541 548.8 541C503 541 457 541 411.2 541C365.3 541 319.7 541 274 541C228.3 541 182.7 541 137 541C91.3 541 45.7 541 22.8 541L0 541Z" fill="#3365d5"></path><path d="M0 519L22.8 516.5C45.7 514 91.3 509 137 507.7C182.7 506.3 228.3 508.7 274 506.7C319.7 504.7 365.3 498.3 411.2 498.8C457 499.3 503 506.7 548.8 509.7C594.7 512.7 640.3 511.3 686 511.2C731.7 511 777.3 512 823 512.2C868.7 512.3 914.3 511.7 937.2 511.3L960 511L960 541L937.2 541C914.3 541 868.7 541 823 541C777.3 541 731.7 541 686 541C640.3 541 594.7 541 548.8 541C503 541 457 541 411.2 541C365.3 541 319.7 541 274 541C228.3 541 182.7 541 137 541C91.3 541 45.7 541 22.8 541L0 541Z" fill="#2450c7"></path></svg>