<svg id="visual" viewBox="0 0 960 540" width="960" height="540" xmlns="http://www.w3.org/2000/svg" xmlns:xlink="http://www.w3.org/1999/xlink" version="1.1"><path d="M0 55L14.5 59.5C29 64 58 73 87.2 73C116.3 73 145.7 64 174.8 62.2C204 60.3 233 65.7 262 67.5C291 69.3 320 67.7 349 66.8C378 66 407 66 436.2 70.5C465.3 75 494.7 84 523.8 85.8C553 87.7 582 82.3 611 82.3C640 82.3 669 87.7 698 84.8C727 82 756 71 785.2 70C814.3 69 843.7 78 872.8 77.2C902 76.3 931 65.7 945.5 60.3L960 55L960 0L945.5 0C931 0 902 0 872.8 0C843.7 0 814.3 0 785.2 0C756 0 727 0 698 0C669 0 640 0 611 0C582 0 553 0 523.8 0C494.7 0 465.3 0 436.2 0C407 0 378 0 349 0C320 0 291 0 262 0C233 0 204 0 174.8 0C145.7 0 116.3 0 87.2 0C58 0 29 0 14.5 0L0 0Z" fill="#2450c7"></path><path d="M0 206L14.5 213.2C29 220.3 58 234.7 87.2 242.8C116.3 251 145.7 253 174.8 254.8C204 256.7 233 258.3 262 254.7C291 251 320 242 349 243C378 244 407 255 436.2 247C465.3 239 494.7 212 523.8 216.5C553 221 582 257 611 259.7C640 262.3 669 231.7 698 232.5C727 233.3 756 265.7 785.2 265.7C814.3 265.7 843.7 233.3 872.8 220.7C902 208 931 215 945.5 218.5L960 222L960 53L945.5 58.3C931 63.7 902 74.3 872.8 75.2C843.7 76 814.3 67 785.2 68C756 69 727 80 698 82.8C669 85.7 640 80.3 611 80.3C582 80.3 553 85.7 523.8 83.8C494.7 82 465.3 73 436.2 68.5C407 64 378 64 349 64.8C320 65.7 291 67.3 262 65.5C233 63.7 204 58.3 174.8 60.2C145.7 62 116.3 71 87.2 71C58 71 29 62 14.5 57.5L0 53Z" fill="#2f3c93"></path><path d="M0 282L14.5 291.8C29 301.7 58 321.3 87.2 323.2C116.3 325 145.7 309 174.8 307.2C204 305.3 233 317.7 262 314C291 310.3 320 290.7 349 295.2C378 299.7 407 328.3 436.2 325.7C465.3 323 494.7 289 523.8 290C553 291 582 327 611 334.2C640 341.3 669 319.7 698 317.8C727 316 756 334 785.2 329.5C814.3 325 843.7 298 872.8 290.8C902 283.7 931 296.3 945.5 302.7L960 309L960 220L945.5 216.5C931 213 902 206 872.8 218.7C843.7 231.3 814.3 263.7 785.2 263.7C756 263.7 727 231.3 698 230.5C669 229.7 640 260.3 611 257.7C582 255 553 219 523.8 214.5C494.7 210 465.3 237 436.2 245C407 253 378 242 349 241C320 240 291 249 262 252.7C233 256.3 204 254.7 174.8 252.8C145.7 251 116.3 249 87.2 240.8C58 232.7 29 218.3 14.5 211.2L0 204Z" fill="#2a2a63"></path><path d="M0 395L14.5 405.8C29 416.7 58 438.3 87.2 443.8C116.3 449.3 145.7 438.7 174.8 434.2C204 429.7 233 431.3 262 440.3C291 449.3 320 465.7 349 466.5C378 467.3 407 452.7 436.2 451.7C465.3 450.7 494.7 463.3 523.8 469.7C553 476 582 476 611 477.8C640 479.7 669 483.3 698 477C727 470.7 756 454.3 785.2 446.2C814.3 438 843.7 438 872.8 438C902 438 931 438 945.5 438L960 438L960 307L945.5 300.7C931 294.3 902 281.7 872.8 288.8C843.7 296 814.3 323 785.2 327.5C756 332 727 314 698 315.8C669 317.7 640 339.3 611 332.2C582 325 553 289 523.8 288C494.7 287 465.3 321 436.2 323.7C407 326.3 378 297.7 349 293.2C320 288.7 291 308.3 262 312C233 315.7 204 303.3 174.8 305.2C145.7 307 116.3 323 87.2 321.2C58 319.3 29 299.7 14.5 289.8L0 280Z" fill="#1e1a37"></path><path d="M0 541L14.5 541C29 541 58 541 87.2 541C116.3 541 145.7 541 174.8 541C204 541 233 541 262 541C291 541 320 541 349 541C378 541 407 541 436.2 541C465.3 541 494.7 541 523.8 541C553 541 582 541 611 541C640 541 669 541 698 541C727 541 756 541 785.2 541C814.3 541 843.7 541 872.8 541C902 541 931 541 945.5 541L960 541L960 436L945.5 436C931 436 902 436 872.8 436C843.7 436 814.3 436 785.2 444.2C756 452.3 727 468.7 698 475C669 481.3 640 477.7 611 475.8C582 474 553 474 523.8 467.7C494.7 461.3 465.3 448.7 436.2 449.7C407 450.7 378 465.3 349 464.5C320 463.7 291 447.3 262 438.3C233 429.3 204 427.7 174.8 432.2C145.7 436.7 116.3 447.3 87.2 441.8C58 436.3 29 414.7 14.5 403.8L0 393Z" fill="#0a0710"></path></svg>