<svg id="visual" viewBox="0 0 960 540" width="960" height="540" xmlns="http://www.w3.org/2000/svg" xmlns:xlink="http://www.w3.org/1999/xlink" version="1.1"><path d="M0 174L14.5 165.8C29 157.7 58 141.3 87.2 155.7C116.3 170 145.7 215 174.8 221.3C204 227.7 233 195.3 262 169.3C291 143.3 320 123.7 349 130C378 136.3 407 168.7 436.2 185.7C465.3 202.7 494.7 204.3 523.8 195.3C553 186.3 582 166.7 611 167.7C640 168.7 669 190.3 698 190.3C727 190.3 756 168.7 785.2 163.2C814.3 157.7 843.7 168.3 872.8 160.2C902 152 931 125 945.5 111.5L960 98L960 0L945.5 0C931 0 902 0 872.8 0C843.7 0 814.3 0 785.2 0C756 0 727 0 698 0C669 0 640 0 611 0C582 0 553 0 523.8 0C494.7 0 465.3 0 436.2 0C407 0 378 0 349 0C320 0 291 0 262 0C233 0 204 0 174.8 0C145.7 0 116.3 0 87.2 0C58 0 29 0 14.5 0L0 0Z" fill="#000212"></path><path d="M0 244L14.5 232.3C29 220.7 58 197.3 87.2 217.2C116.3 237 145.7 300 174.8 309.8C204 319.7 233 276.3 262 241.2C291 206 320 179 349 180C378 181 407 210 436.2 232.5C465.3 255 494.7 271 523.8 270C553 269 582 251 611 252.8C640 254.7 669 276.3 698 274.5C727 272.7 756 247.3 785.2 245.5C814.3 243.7 843.7 265.3 872.8 261.8C902 258.3 931 229.7 945.5 215.3L960 201L960 96L945.5 109.5C931 123 902 150 872.8 158.2C843.7 166.3 814.3 155.7 785.2 161.2C756 166.7 727 188.3 698 188.3C669 188.3 640 166.7 611 165.7C582 164.7 553 184.3 523.8 193.3C494.7 202.3 465.3 200.7 436.2 183.7C407 166.7 378 134.3 349 128C320 121.7 291 141.3 262 167.3C233 193.3 204 225.7 174.8 219.3C145.7 213 116.3 168 87.2 153.7C58 139.3 29 155.7 14.5 163.8L0 172Z" fill="#07081a"></path><path d="M0 433L14.5 414.2C29 395.3 58 357.7 87.2 359.5C116.3 361.3 145.7 402.7 174.8 408.8C204 415 233 386 262 368C291 350 320 343 349 338.5C378 334 407 332 436.2 343.7C465.3 355.3 494.7 380.7 523.8 383.5C553 386.3 582 366.7 611 361.3C640 356 669 365 698 363.2C727 361.3 756 348.7 785.2 363C814.3 377.3 843.7 418.7 872.8 433C902 447.3 931 434.7 945.5 428.3L960 422L960 199L945.5 213.3C931 227.7 902 256.3 872.8 259.8C843.7 263.3 814.3 241.7 785.2 243.5C756 245.3 727 270.7 698 272.5C669 274.3 640 252.7 611 250.8C582 249 553 267 523.8 268C494.7 269 465.3 253 436.2 230.5C407 208 378 179 349 178C320 177 291 204 262 239.2C233 274.3 204 317.7 174.8 307.8C145.7 298 116.3 235 87.2 215.2C58 195.3 29 218.7 14.5 230.3L0 242Z" fill="#0d0d21"></path><path d="M0 471L14.5 457.5C29 444 58 417 87.2 419.7C116.3 422.3 145.7 454.7 174.8 461.8C204 469 233 451 262 437.5C291 424 320 415 349 413.2C378 411.3 407 416.7 436.2 432C465.3 447.3 494.7 472.7 523.8 468.2C553 463.7 582 429.3 611 414.8C640 400.3 669 405.7 698 406.7C727 407.7 756 404.3 785.2 417.8C814.3 431.3 843.7 461.7 872.8 477.8C902 494 931 496 945.5 497L960 498L960 420L945.5 426.3C931 432.7 902 445.3 872.8 431C843.7 416.7 814.3 375.3 785.2 361C756 346.7 727 359.3 698 361.2C669 363 640 354 611 359.3C582 364.7 553 384.3 523.8 381.5C494.7 378.7 465.3 353.3 436.2 341.7C407 330 378 332 349 336.5C320 341 291 348 262 366C233 384 204 413 174.8 406.8C145.7 400.7 116.3 359.3 87.2 357.5C58 355.7 29 393.3 14.5 412.2L0 431Z" fill="#111228"></path><path d="M0 541L14.5 541C29 541 58 541 87.2 541C116.3 541 145.7 541 174.8 541C204 541 233 541 262 541C291 541 320 541 349 541C378 541 407 541 436.2 541C465.3 541 494.7 541 523.8 541C553 541 582 541 611 541C640 541 669 541 698 541C727 541 756 541 785.2 541C814.3 541 843.7 541 872.8 541C902 541 931 541 945.5 541L960 541L960 496L945.5 495C931 494 902 492 872.8 475.8C843.7 459.7 814.3 429.3 785.2 415.8C756 402.3 727 405.7 698 404.7C669 403.7 640 398.3 611 412.8C582 427.3 553 461.7 523.8 466.2C494.7 470.7 465.3 445.3 436.2 430C407 414.7 378 409.3 349 411.2C320 413 291 422 262 435.5C233 449 204 467 174.8 459.8C145.7 452.7 116.3 420.3 87.2 417.7C58 415 29 442 14.5 455.5L0 469Z" fill="#141530"></path></svg>